<svg height="512pt" viewBox="-16 0 512 512" width="512pt" xmlns="http://www.w3.org/2000/svg"><path d="m120 150c-63.28125 0-106.582031-47.152344-108.675781-49.160156l-11.324219-10.839844 11.324219-10.839844c2.09375-2.007812 45.394531-49.160156 108.675781-49.160156s106.582031 47.152344 108.675781 49.160156l11.324219 10.839844-11.324219 10.839844c-2.09375 2.007812-45.394531 49.160156-108.675781 49.160156zm0 0" fill="#90e36a"/><path d="m441.300781 0-25.800781 25.5c-35.699219 36-55.5 83.699219-55.5 134.398438v96.101562h-30v-96.101562c0-27.898438 5.097656-54.898438 15-79.796876 6.300781-16.800781 15-32.703124 25.5-47.402343-8.699219 1.199219-17.398438 3-25.5 5.699219-95.097656 26.101562-165 114.402343-165 217.601562h-30c0-120 83.101562-221.800781 195-248.800781 19.199219-4.800781 39.300781-7.199219 60-7.199219zm0 0" fill="#b35f49"/><path d="m441.300781 0-25.800781 25.5c-35.699219 36-55.5 83.699219-55.5 134.398438v96.101562h-15v-175.902344c6.300781-16.796875 15-32.699218 25.5-47.398437-8.699219 1.199219-17.398438 3-25.5 5.699219v-31.199219c19.199219-4.800781 39.300781-7.199219 60-7.199219zm0 0" fill="#99503d"/><path d="m165 241c-74.398438 0-135 60.597656-135 135 0 74.398438 60.601562 136 135 136s135-61.601562 135-136c0-74.402344-60.601562-135-135-135zm0 0" fill="#ff4949"/><path d="m105 361h-30c0-41.351562 33.648438-75 75-75v30c-24.8125 0-45 20.1875-45 45zm0 0" fill="#ff193d"/><path d="m300 376c0 74.398438-60.601562 136-135 136v-271c74.398438 0 135 60.597656 135 135zm0 0" fill="#ff193d"/><path d="m345 241c-74.398438 0-135 60.597656-135 135 0 74.398438 60.601562 136 135 136s135-61.601562 135-136c0-74.402344-60.601562-135-135-135zm0 0" fill="#ff6c6c"/><g fill="#ff4949"><path d="m285 361h-30c0-41.351562 33.648438-75 75-75v30c-24.8125 0-45 20.1875-45 45zm0 0"/><path d="m480 376c0 74.398438-60.601562 136-135 136v-271c74.398438 0 135 60.597656 135 135zm0 0"/></g></svg>