<svg id="Layer_1" enable-background="new 0 0 512 512" height="512" viewBox="0 0 512 512" width="512" xmlns="http://www.w3.org/2000/svg"><g><path d="m413.423 99.093-13.48 258.52c-22.84 40.12-50.1 66.28-50.1 66.28s-63.76 66.27-144.82 78.64c-35.82 5.46-75.03.4-113.6-25.57-19.59 17.86-45.42 31.78-66.79 10.44-21.37-21.35-7.43-47.14 10.45-66.71-84.82-125.69 53.14-258.09 53.14-258.09s130.69-135.84 255.73-54.83c.9.57 1.79 1.16 2.68 1.76 19.6-17.86 45.42-31.78 66.79-10.44z" fill="#fff18d"/><path d="m413.423 99.093-13.48 258.52c-22.84 40.12-50.1 66.28-50.1 66.28s-63.76 66.27-144.82 78.64c60.73-20.89 114.71-79.02 157.51-145.39-66.92-97.56-30.82-216.2-18.58-249.37.9.57 1.79 1.16 2.68 1.76 19.6-17.86 45.42-31.78 66.79-10.44z" fill="#ffd366"/><g><path d="m454.783 422.183c-.86-.73-1.71-1.46-2.56-2.2-119.43-103.66-104.47-283.96-42.68-318.82 1.34-.76 2.71-1.45 4.09-2.07 74.17 10.13 139.25 194.07 41.15 323.09z" fill="#00cec8"/><path d="m454.783 422.183c-.86-.73-1.71-1.46-2.56-2.2 41.457-200.467-25.46-302.85-42.68-318.82 1.34-.76 2.71-1.45 4.09-2.07 74.17 10.13 139.25 194.07 41.15 323.09z" fill="#00a3a8"/></g></g><g><path d="m257.863 478.649c-59.71 27.001-114.29 24.341-162.222-7.911-2.869-1.93-6.684-1.649-9.238.679-10.677 9.727-20.637 15.854-29.601 18.21-10.293 2.706-19.081.24-26.871-7.537-7.785-7.771-10.253-16.536-7.546-26.796 2.36-8.945 8.496-18.884 18.238-29.541 2.339-2.558 2.62-6.385.681-9.257-18.412-27.268-27.235-57.106-26.225-88.685.816-25.506 7.989-52.299 21.32-79.635 22.944-47.046 56.558-79.697 57.041-80.163 2.989-2.868 3.088-7.615.221-10.604-2.868-2.989-7.616-3.088-10.605-.221-1.448 1.389-35.745 34.589-59.95 84.026-14.344 29.297-22.087 58.19-23.011 85.875-1.104 33.012 7.505 64.247 25.6 92.934-9.197 10.907-15.181 21.465-17.814 31.446-4.071 15.435-.111 29.695 11.453 41.238 11.558 11.538 25.832 15.49 41.283 11.429 9.999-2.628 20.578-8.605 31.508-17.791 27.091 17.03 56.479 25.655 87.46 25.655.394 0 .788-.001 1.182-.004 26.801-.189 54.819-6.811 83.277-19.68 3.774-1.707 5.45-6.15 3.743-9.924s-6.15-5.452-9.924-3.743z"/><path d="m40.061 329.445c-.67 26.284 6.524 50.201 21.996 73.115 1.449 2.146 3.814 3.304 6.223 3.304 1.444 0 2.903-.417 4.19-1.285 3.433-2.318 4.337-6.98 2.019-10.412-13.665-20.238-20.021-41.284-19.433-64.339.105-4.141-3.166-7.583-7.306-7.689-4.157-.104-7.583 3.166-7.689 7.306z"/><path d="m51.44 300.361c.706.208 1.417.306 2.118.306 3.242 0 6.232-2.119 7.192-5.387 2.698-9.18 6.383-18.672 10.952-28.213 1.789-3.736.211-8.215-3.524-10.004-3.737-1.789-8.215-.211-10.004 3.524-4.916 10.265-8.891 20.514-11.815 30.463-1.168 3.975 1.107 8.143 5.081 9.311z"/><path d="m492.637 170.274c-15.719-37.985-38.885-64.824-63.835-74.809 4.501-4.622 9.789-10.794 14.568-18.284 14.949-23.43 17.759-48.491 8.127-72.474-1.544-3.843-5.912-5.71-9.755-4.164-3.844 1.543-5.708 5.911-4.164 9.755 7.809 19.443 5.584 39.104-6.614 58.437-5.893 9.34-12.836 16.431-17.282 20.487-10.52-7.954-22.857-10.332-36.052-6.863-9.999 2.628-20.578 8.605-31.507 17.791-40.443-25.45-85.413-32.034-133.761-19.558-42.159 10.877-78.242 34.271-101.088 51.981-3.273 2.538-3.87 7.249-1.333 10.523 1.479 1.907 3.694 2.905 5.933 2.905 1.605 0 3.223-.513 4.59-1.573 107.04-82.975 185.123-53.58 222.139-28.672 2.867 1.929 6.682 1.649 9.238-.679 10.677-9.727 20.636-15.854 29.601-18.21 6.817-1.793 12.975-1.315 18.619 1.471-29.149 21.106-46.871 71.419-44.942 130.658.135 4.14 3.605 7.367 7.74 7.252 4.14-.135 7.387-3.6 7.252-7.74-1.882-57.767 16.378-107.233 44.61-121.633 23.8 4.543 48.173 30.76 64.054 69.136 14.494 35.023 20.655 76.358 17.348 116.389-3.594 43.505-18.269 84.387-42.557 118.756-41.687-37.664-69.907-89.466-79.776-146.756-.703-4.083-4.583-6.82-8.664-6.118-4.082.703-6.821 4.582-6.118 8.664 5.564 32.299 16.655 62.96 32.488 90.597-21.541 36.574-46.439 60.694-46.693 60.938-.07.067-.142.139-.209.208-.212.22-21.605 22.241-54.586 42.715-3.519 2.185-4.601 6.809-2.417 10.328 1.42 2.288 3.871 3.545 6.379 3.545 1.35 0 2.717-.364 3.948-1.129 33.819-20.994 55.487-43.001 57.375-44.946 1.985-1.919 24.05-23.568 45.04-57.295 13.798 20.929 30.462 39.822 49.609 55.999 1.36 1.149 3.077 1.771 4.84 1.771.272 0 .546-.015.82-.045 2.043-.225 3.905-1.278 5.15-2.914 65.979-86.723 58.412-192.345 31.885-256.444z"/><circle cx="173.34" cy="463.136" r="7.5"/><circle cx="263.741" cy="128.368" r="7.5"/><circle cx="328.892" cy="148.218" r="7.5"/></g></svg>