<?xml version="1.0" encoding="iso-8859-1"?>
<!-- Generator: Adobe Illustrator 19.0.0, SVG Export Plug-In . SVG Version: 6.00 Build 0)  -->
<svg version="1.1" id="Layer_1" xmlns="http://www.w3.org/2000/svg" xmlns:xlink="http://www.w3.org/1999/xlink" x="0px" y="0px"
	 viewBox="0 0 512 512" style="enable-background:new 0 0 512 512;" xml:space="preserve">
<g>
	<g>
		<path d="M455.551,24.469L434.218,3.136c-2.176-2.176-5.099-3.157-8.213-3.093c-3.072,0.192-5.867,1.685-7.765,4.096
			c-0.299,0.384-30.571,38.528-76.907,38.528c-23.04,0-39.552-9.472-57.003-19.52C265.45,12.309,244.074,0,213.332,0
			c-38.784,0-75.093,23.509-96,40.256V10.667C117.332,4.779,112.554,0,106.666,0H63.999c-5.888,0-10.667,4.779-10.667,10.667V224
			c0,5.888,4.779,10.667,10.667,10.667h42.667c5.888,0,10.667-4.779,10.667-10.667v-42.667c0-22.144,9.877-32,32-32
			c6.421,0,14.869,2.816,25.579,6.4c18.88,6.293,44.736,14.933,81.088,14.933c23.424,0,40.683-1.813,53.077-4.032
			c-16.128,27.669-46.592,73.643-79.317,90.56c-54.485,28.181-112.427,123.328-112.427,244.139c0,5.888,4.779,10.667,10.667,10.667
			h213.333c0.171,0,0.341,0,0.427,0c5.888,0,10.667-4.779,10.667-10.667c0-2.389-0.789-4.608-2.133-6.4
			c-4.011-10.624-19.627-55.104-19.627-100.267c0-53.504,94.741-322.56,125.163-355.435
			C459.711,35.029,459.604,28.523,455.551,24.469z"/>
	</g>
</g>
<g>
</g>
<g>
</g>
<g>
</g>
<g>
</g>
<g>
</g>
<g>
</g>
<g>
</g>
<g>
</g>
<g>
</g>
<g>
</g>
<g>
</g>
<g>
</g>
<g>
</g>
<g>
</g>
<g>
</g>
</svg>
