<svg id="Layer_1" enable-background="new 0 0 512 512" height="512" viewBox="0 0 512 512" width="512" xmlns="http://www.w3.org/2000/svg"><g><path d="m412.338 412.33c-197.134 197.133-369.42 22.118-404.831-13.294l391.537-391.537c35.412 35.411 210.427 207.697 13.294 404.831z" fill="#09eaa3"/><path d="m412.338 412.33c-197.134 197.133-369.42 22.118-404.831-13.294l.354-.354c59.878 54.744 212.838 165.689 384.679-6.152s60.895-324.8 6.151-384.678l.354-.354c35.411 35.412 210.426 207.698 13.293 404.832z" fill="#05c9a3"/><path d="m364.523 42.019c51.654 51.654 70.173 89.406 81.218 123.927 10.126 31.692 11.448 63.279 3.903 93.861-9.666 39.195-34.111 78.616-72.662 117.167s-77.972 62.996-117.167 72.662c-30.582 7.545-62.169 6.223-93.861-3.903-34.521-11.045-72.273-29.564-123.927-81.218z" fill="#ff6b81"/><path d="m364.523 42.019c51.654 51.654 70.173 89.406 81.218 123.927 10.126 31.692 11.448 63.279 3.903 93.861-9.666 39.195-34.111 78.616-72.662 117.167s-77.972 62.996-117.167 72.662c-30.582 7.545-62.169 6.223-93.861-3.903-34.521-11.045-72.273-29.564-123.927-81.218l.601-.601c40.814 36.303 72.641 51.173 102.113 60.606 31.692 10.126 63.279 11.448 93.861 3.903 39.195-9.666 78.616-34.111 117.167-72.662s62.996-77.972 72.662-117.167c7.545-30.582 6.223-62.169-3.903-93.861-9.433-29.472-24.303-61.299-60.606-102.113z" fill="#ed2061"/><g><g><path d="m346.37 315.095c8.634 8.634 8.634 22.633 0 31.267s-22.633 8.634-31.267 0c-11.948-11.948-8.23-39.497-8.23-39.497s27.617-3.65 39.497 8.23z" fill="#0b687f"/></g><g><path d="m264.732 369.382c7.418 7.418 7.418 19.445 0 26.863s-19.445 7.418-26.863 0c-10.265-10.265-7.071-33.934-7.071-33.934s23.728-3.135 33.934 7.071z" fill="#0b687f"/></g><g><path d="m396.253 237.861c7.418 7.418 7.418 19.445 0 26.863s-19.445 7.418-26.863 0c-10.265-10.265-7.071-33.934-7.071-33.934s23.728-3.135 33.934 7.071z" fill="#0b687f"/></g><g><path d="m237.515 269.334c7.418 7.418 7.418 19.445 0 26.863s-19.445 7.418-26.863 0c-10.265-10.265-7.071-33.934-7.071-33.934s23.728-3.135 33.934 7.071z" fill="#0b687f"/></g><g><path d="m183.776 342.811c8.607 8.607 8.607 22.561 0 31.167-8.607 8.607-22.561 8.607-31.167 0-11.91-11.91-8.204-39.371-8.204-39.371s27.529-3.637 39.371 8.204z" fill="#0b687f"/></g><g><path d="m373.987 156.905c7.418 7.418 7.418 19.445 0 26.863s-19.445 7.418-26.863 0c-10.265-10.265-7.071-33.934-7.071-33.934s23.727-3.136 33.934 7.071z" fill="#0b687f"/></g><g><path d="m307.168 212.929c9.815 9.815 9.815 25.727 0 35.542s-25.727 9.815-35.542 0c-13.581-13.581-9.355-44.897-9.355-44.897s31.394-4.149 44.897 9.355z" fill="#0b687f"/></g></g></g><g><path d="m495.34 133.771c-25.408-66.017-72.531-113.117-90.271-130.848l-.727-.728c-2.93-2.928-7.678-2.928-10.608 0l-116.241 116.244c-2.929 2.93-2.929 7.678 0 10.608 2.929 2.928 7.678 2.928 10.607 0l76.383-76.384c48.472 49.769 64.321 84.949 74.111 115.57 3.652 11.43 6.139 22.979 7.39 34.326.423 3.839 3.672 6.68 7.445 6.68.275 0 .553-.016.831-.046 4.117-.454 7.087-4.159 6.634-8.277-1.36-12.338-4.056-24.871-8.013-37.251-9.865-30.858-26.884-69.324-77.791-121.61l23.923-23.924c114.42 117.086 129.018 238.15 42.112 350.424-2.535 3.275-1.936 7.987 1.34 10.522 1.366 1.058 2.982 1.569 4.586 1.569 2.24 0 4.458-1 5.936-2.909 32.78-42.347 52.113-86.565 57.466-131.425 4.427-37.117-.657-74.982-15.113-112.541z"/><path d="m429.036 394.826c-3.035-2.819-7.781-2.645-10.6.389-3.659 3.939-7.495 7.916-11.404 11.824-80.648 80.65-166.116 107.291-254.026 79.188-65.132-20.822-113.167-65.684-134.893-87.19l23.94-23.941c26.539 25.853 51.567 45.055 76.344 58.589 1.142.624 2.374.919 3.588.919 2.654 0 5.227-1.412 6.589-3.905 1.986-3.636.648-8.193-2.987-10.178-23.523-12.849-47.433-31.215-72.926-56.033l208.644-208.646c2.929-2.93 2.929-7.678 0-10.608-2.929-2.928-7.678-2.928-10.607 0l-248.501 248.506c-1.407 1.407-2.197 3.314-2.197 5.304 0 1.989.79 3.897 2.197 5.304l.728.728c19.652 19.663 71.855 71.891 145.514 95.439 23.944 7.654 47.928 11.485 71.739 11.485 17.93 0 35.764-2.173 53.403-6.523 49.521-12.211 97.989-41.762 144.059-87.832 4.036-4.037 8.001-8.149 11.784-12.22 2.82-3.034 2.646-7.78-.388-10.599z"/><path d="m155.328 450.091c2.696.949 5.501 1.89 8.336 2.796 18.943 6.055 37.854 9.085 56.564 9.085 13.929 0 27.748-1.68 41.382-5.042 40.543-9.996 81.143-35.109 120.674-74.641s64.643-80.132 74.64-120.675c1.701-6.899 2.987-13.943 3.823-20.936.491-4.112-2.444-7.845-6.558-8.337-4.091-.492-7.844 2.444-8.337 6.558-.763 6.385-1.939 12.82-3.493 19.124-9.332 37.851-33.113 76.091-70.683 113.659-37.568 37.57-75.808 61.351-113.658 70.684-29.215 7.208-59.425 5.939-89.787-3.766-2.698-.862-5.364-1.757-7.923-2.657-3.908-1.375-8.19.678-9.565 4.584-1.374 3.907.678 8.189 4.585 9.564z"/><path d="m305.888 299.438c-3.355.443-5.998 3.079-6.45 6.433-.431 3.196-3.806 31.64 10.36 45.806 5.773 5.772 13.355 8.657 20.937 8.657 7.583 0 15.166-2.886 20.938-8.658 11.544-11.545 11.544-30.33 0-41.875-14.091-14.09-42.583-10.785-45.785-10.363zm35.178 41.631c-5.696 5.698-14.966 5.696-20.662 0-5.837-5.837-6.787-18.749-6.539-27.185 8.462-.235 21.398.723 27.2 6.525 5.697 5.695 5.697 14.964.001 20.66z"/><path d="m229.812 354.887c-3.355.443-5.998 3.079-6.45 6.433-.037.272-.894 6.759-.364 14.624.769 11.42 3.987 20.039 9.565 25.618 5.165 5.165 11.95 7.747 18.735 7.747s13.57-2.582 18.736-7.748c10.33-10.331 10.33-27.14 0-37.471-12.464-12.462-37.416-9.573-40.222-9.203zm29.614 36.068c-4.481 4.482-11.774 4.483-16.257.001-4.555-4.556-5.452-14.559-5.336-21.593 7.38-.114 17.249.992 21.593 5.336 4.481 4.481 4.481 11.774 0 16.256z"/><path d="m401.556 232.565c-12.464-12.463-37.418-9.574-40.22-9.202-3.356.443-5.998 3.079-6.45 6.433-.037.272-.894 6.759-.364 14.624.769 11.42 3.986 20.039 9.565 25.617 5.166 5.165 11.949 7.747 18.735 7.747 6.784 0 13.572-2.583 18.737-7.747 5.004-5.005 7.76-11.659 7.76-18.736-.002-7.078-2.758-13.731-7.763-18.736zm-10.605 26.864c-4.482 4.482-11.774 4.484-16.258 0-4.552-4.552-5.451-14.544-5.336-21.579 7.048-.092 17.07.799 21.593 5.322 4.482 4.482 4.482 11.775.001 16.257z"/><path d="m202.596 254.836c-3.355.443-5.998 3.079-6.45 6.433-.037.272-.894 6.759-.364 14.624.768 11.42 3.986 20.039 9.565 25.618 5.165 5.165 11.95 7.747 18.735 7.747s13.57-2.582 18.735-7.747c10.331-10.331 10.331-27.14 0-37.472-12.465-12.463-37.416-9.573-40.221-9.203zm29.613 36.067c-4.482 4.483-11.775 4.482-16.257.001-4.552-4.553-5.451-14.546-5.336-21.58 7.057-.132 17.069.799 21.593 5.322 4.482 4.482 4.482 11.776 0 16.257z"/><path d="m143.418 327.182c-3.355.443-5.998 3.079-6.45 6.433-.43 3.188-3.795 31.551 10.333 45.679 5.759 5.758 13.323 8.638 20.887 8.638s15.129-2.88 20.887-8.638c11.517-11.518 11.517-30.258 0-41.776-14.053-14.052-42.464-10.758-45.657-10.336zm35.05 41.504c-5.669 5.67-14.892 5.67-20.561 0-5.808-5.808-6.756-18.652-6.511-27.057 8.438-.232 21.3.724 27.073 6.497 5.668 5.668 5.668 14.892-.001 20.56z"/><path d="m339.069 142.403c-3.355.443-5.998 3.079-6.45 6.433-.037.272-.894 6.758-.365 14.624.769 11.42 3.986 20.039 9.564 25.617 5.005 5.004 11.659 7.761 18.736 7.761s13.732-2.757 18.736-7.761c5.004-5.005 7.76-11.659 7.76-18.735 0-7.077-2.756-13.731-7.76-18.735-12.464-12.465-37.416-9.574-40.221-9.204zm29.613 36.067c-2.171 2.171-5.058 3.367-8.128 3.367s-5.957-1.196-8.128-3.368c-4.552-4.552-5.451-14.544-5.336-21.579 7.047-.108 17.069.799 21.592 5.322v.001c4.482 4.483 4.482 11.775 0 16.257z"/><path d="m261.286 196.145c-3.355.443-5.998 3.079-6.45 6.433-.483 3.582-4.268 35.451 11.486 51.206 6.361 6.362 14.718 9.542 23.075 9.542 8.356 0 16.713-3.181 23.074-9.542 12.723-12.724 12.723-33.427 0-46.15-15.669-15.671-47.596-11.962-51.185-11.489zm40.577 47.03c-6.875 6.876-18.06 6.875-24.935.001-7.189-7.19-8.149-22.799-7.718-32.64 9.864-.413 25.507.557 32.653 7.702v.001c6.875 6.875 6.875 18.062 0 24.936z"/><circle cx="104.65" cy="361.579" r="7.501"/><circle cx="261.792" cy="325.108" r="7.501"/><circle cx="359.563" cy="102.822" r="7.501"/></g></svg>